<svg width="131" height="36" fill="none" xmlns="http://www.w3.org/2000/svg"><path d="M.227 35.52v-3.9h1.028c1.461 0 2.597-.468 3.408-1.403.81-.936 1.393-2.447 1.747-4.534.365-2.088.61-4.854.736-8.299L7.763.479h21.372v35.042h-4.247V4.243H11.804l-.548 13.962c-.137 3.673-.474 6.799-1.01 9.377-.537 2.578-1.479 4.545-2.826 5.903-1.347 1.357-3.31 2.036-5.891 2.036H.227ZM67.214 18c0 3.696-.668 6.89-2.004 9.582-1.336 2.692-3.168 4.768-5.497 6.228-2.33 1.46-4.99 2.19-7.98 2.19-2.992 0-5.652-.73-7.981-2.19-2.33-1.46-4.162-3.536-5.497-6.228C36.919 24.89 36.25 21.696 36.25 18c0-3.696.668-6.89 2.004-9.582 1.335-2.692 3.168-4.768 5.497-6.228C46.08.73 48.742 0 51.732 0c2.992 0 5.652.73 7.98 2.19 2.33 1.46 4.162 3.536 5.498 6.228 1.336 2.692 2.004 5.886 2.004 9.582Zm-4.11 0c0-3.034-.508-5.595-1.524-7.682-1.005-2.088-2.37-3.668-4.093-4.74-1.713-1.072-3.631-1.608-5.755-1.608-2.123 0-4.047.536-5.77 1.608-1.714 1.072-3.078 2.652-4.094 4.74-1.005 2.087-1.507 4.648-1.507 7.682 0 3.034.502 5.595 1.507 7.683 1.016 2.087 2.38 3.667 4.093 4.74 1.724 1.071 3.648 1.607 5.771 1.607 2.124 0 4.042-.536 5.755-1.608 1.724-1.072 3.088-2.652 4.093-4.74 1.016-2.087 1.524-4.648 1.524-7.682ZM95.522.48v3.763h-16.92v31.278h-4.247V.479h21.167ZM130.227 18c0 3.696-.668 6.89-2.003 9.582-1.336 2.692-3.169 4.768-5.498 6.228s-4.989 2.19-7.98 2.19c-2.991 0-5.652-.73-7.981-2.19-2.329-1.46-4.161-3.536-5.497-6.228-1.336-2.692-2.004-5.886-2.004-9.582 0-3.696.668-6.89 2.004-9.582 1.336-2.692 3.168-4.768 5.497-6.228C109.094.73 111.755 0 114.746 0c2.991 0 5.651.73 7.98 2.19 2.329 1.46 4.162 3.536 5.498 6.228 1.335 2.692 2.003 5.886 2.003 9.582Zm-4.11 0c0-3.034-.508-5.595-1.524-7.682-1.005-2.088-2.369-3.668-4.093-4.74-1.713-1.072-3.631-1.608-5.754-1.608-2.124 0-4.048.536-5.772 1.608-1.712 1.072-3.076 2.652-4.093 4.74-1.004 2.087-1.507 4.648-1.507 7.682 0 3.034.503 5.595 1.507 7.683 1.017 2.087 2.381 3.667 4.093 4.74 1.724 1.071 3.648 1.607 5.772 1.607 2.123 0 4.041-.536 5.754-1.608 1.724-1.072 3.088-2.652 4.093-4.74 1.016-2.087 1.524-4.648 1.524-7.682Z" fill="#6CB71D"/></svg>